<svg xmlns="http://www.w3.org/2000/svg" viewBox="0 0 1200 1200" fill="none">
  <defs>
    <linearGradient id="bg" x1="0" y1="0" x2="1" y2="1">
      <stop offset="0%" stop-color="#08111a"/>
      <stop offset="100%" stop-color="#12233a"/>
    </linearGradient>
    <radialGradient id="glow-violet" cx="0" cy="0" r="1" gradientUnits="userSpaceOnUse" gradientTransform="translate(320 910) rotate(90) scale(260 420)">
      <stop offset="0%" stop-color="#8f6cff" stop-opacity="0.32"/>
      <stop offset="100%" stop-color="#8f6cff" stop-opacity="0"/>
    </radialGradient>
    <radialGradient id="glow-cyan" cx="0" cy="0" r="1" gradientUnits="userSpaceOnUse" gradientTransform="translate(905 860) rotate(90) scale(250 360)">
      <stop offset="0%" stop-color="#36d9ff" stop-opacity="0.22"/>
      <stop offset="100%" stop-color="#36d9ff" stop-opacity="0"/>
    </radialGradient>
    <filter id="soft" x="-50%" y="-50%" width="200%" height="200%">
      <feGaussianBlur stdDeviation="16"/>
    </filter>
    <filter id="bloom" x="-50%" y="-50%" width="200%" height="200%">
      <feGaussianBlur stdDeviation="7" result="blur"/>
      <feMerge>
        <feMergeNode in="blur"/>
        <feMergeNode in="SourceGraphic"/>
      </feMerge>
    </filter>
  </defs>

  <rect width="1200" height="1200" rx="40" fill="url(#bg)"/>
  <rect x="26" y="26" width="1148" height="1148" rx="34" stroke="#28405f" stroke-opacity="0.6"/>
  <circle cx="1010" cy="130" r="210" fill="#24d8ff" fill-opacity="0.1"/>
  <circle cx="180" cy="180" r="220" fill="#8f6cff" fill-opacity="0.14"/>
  <rect width="1200" height="1200" fill="url(#glow-violet)"/>
  <rect width="1200" height="1200" fill="url(#glow-cyan)"/>

  <g opacity="0.24">
    <circle cx="102" cy="120" r="1.2" fill="#fff"/>
    <circle cx="168" cy="84" r="1.1" fill="#fff"/>
    <circle cx="244" cy="148" r="1.3" fill="#fff"/>
    <circle cx="923" cy="186" r="1.2" fill="#fff"/>
    <circle cx="1015" cy="220" r="1.1" fill="#fff"/>
    <circle cx="1100" cy="168" r="1.2" fill="#fff"/>
    <circle cx="860" cy="316" r="1.1" fill="#fff"/>
    <circle cx="980" cy="338" r="1.3" fill="#fff"/>
  </g>

  <g font-family="Inter, Arial, sans-serif">
    <text x="84" y="96" fill="#BBD5EC" font-size="22" font-weight="600" letter-spacing="7">INTERACTIVE BROWSER TOY</text>
    <text x="84" y="184" fill="#F2F8FF" font-size="88" font-weight="800">Signal Garden</text>
    <text x="84" y="238" fill="#D4E5F6" font-size="32">Plant glowing procedural blooms in a dark little browser field.</text>
    <text x="84" y="284" fill="#9CB4CC" font-size="26">Replay gardens. Share exact layouts. Export the field as a PNG.</text>
  </g>

  <g transform="translate(84 328)">
    <rect x="0" y="0" width="268" height="62" rx="31" fill="#12243c" stroke="#456183"/>
    <text x="34" y="39" fill="#F2F8FF" font-size="26" font-family="Inter, Arial, sans-serif" font-weight="700">click to plant</text>
    <rect x="286" y="0" width="314" height="62" rx="31" fill="#12243c" stroke="#456183"/>
    <text x="320" y="39" fill="#F2F8FF" font-size="26" font-family="Inter, Arial, sans-serif" font-weight="700">copy share links</text>
    <rect x="618" y="0" width="246" height="62" rx="31" fill="#12243c" stroke="#456183"/>
    <text x="652" y="39" fill="#F2F8FF" font-size="26" font-family="Inter, Arial, sans-serif" font-weight="700">export PNG</text>
  </g>

  <g stroke-linecap="round" stroke-dasharray="7 10" opacity="0.45">
    <line x1="200" y1="760" x2="345" y2="694" stroke="#8f6cff" stroke-width="2"/>
    <line x1="345" y1="694" x2="494" y2="808" stroke="#ffd166" stroke-width="2"/>
    <line x1="494" y1="808" x2="612" y2="648" stroke="#ff6ec7" stroke-width="2"/>
    <line x1="612" y1="648" x2="748" y2="780" stroke="#55e6ff" stroke-width="2"/>
    <line x1="748" y1="780" x2="884" y2="708" stroke="#7cff8f" stroke-width="2"/>
    <line x1="884" y1="708" x2="1008" y2="796" stroke="#55e6ff" stroke-width="2"/>
    <line x1="1008" y1="796" x2="1094" y2="658" stroke="#9d7bff" stroke-width="2"/>
  </g>

  <g filter="url(#soft)">
    <ellipse cx="200" cy="760" rx="82" ry="48" fill="#55e6ff" fill-opacity="0.26" transform="rotate(-10 200 760)"/>
    <ellipse cx="345" cy="694" rx="76" ry="44" fill="#9d7bff" fill-opacity="0.26" transform="rotate(18 345 694)"/>
    <ellipse cx="494" cy="808" rx="88" ry="50" fill="#ffd166" fill-opacity="0.22" transform="rotate(-18 494 808)"/>
    <ellipse cx="612" cy="648" rx="74" ry="42" fill="#ff6ec7" fill-opacity="0.24" transform="rotate(12 612 648)"/>
    <ellipse cx="748" cy="780" rx="80" ry="46" fill="#55e6ff" fill-opacity="0.24" transform="rotate(-12 748 780)"/>
    <ellipse cx="884" cy="708" rx="82" ry="48" fill="#7cff8f" fill-opacity="0.22" transform="rotate(14 884 708)"/>
    <ellipse cx="1008" cy="796" rx="84" ry="48" fill="#55e6ff" fill-opacity="0.22" transform="rotate(-16 1008 796)"/>
    <ellipse cx="1094" cy="658" rx="74" ry="42" fill="#9d7bff" fill-opacity="0.26" transform="rotate(8 1094 658)"/>
  </g>

  <g filter="url(#bloom)" font-family="Inter, Arial, sans-serif">
    <g>
      <line x1="200" y1="865" x2="200" y2="760" stroke="#55e6ff" stroke-width="5"/>
      <ellipse cx="200" cy="760" rx="64" ry="36" stroke="#55e6ff" stroke-width="3" transform="rotate(-10 200 760)"/>
      <ellipse cx="200" cy="760" rx="92" ry="48" stroke="#55e6ff" stroke-width="2" stroke-dasharray="5 7" opacity="0.7" transform="rotate(16 200 760)"/>
      <circle cx="200" cy="760" r="13" fill="#F8FDFF"/>
      <circle cx="160" cy="772" r="7" fill="#A8F6FF"/>
      <circle cx="237" cy="748" r="7" fill="#A8F6FF"/>
    </g>
    <g>
      <line x1="345" y1="852" x2="345" y2="694" stroke="#9d7bff" stroke-width="5"/>
      <ellipse cx="345" cy="694" rx="60" ry="34" stroke="#9d7bff" stroke-width="3" transform="rotate(18 345 694)"/>
      <ellipse cx="345" cy="694" rx="88" ry="46" stroke="#9d7bff" stroke-width="2" stroke-dasharray="5 7" opacity="0.7" transform="rotate(-11 345 694)"/>
      <circle cx="345" cy="694" r="13" fill="#F8FDFF"/>
      <circle cx="310" cy="710" r="7" fill="#CDBDFF"/>
      <circle cx="385" cy="680" r="7" fill="#CDBDFF"/>
    </g>
    <g>
      <line x1="494" y1="935" x2="494" y2="808" stroke="#ffd166" stroke-width="5"/>
      <ellipse cx="494" cy="808" rx="66" ry="38" stroke="#ffd166" stroke-width="3" transform="rotate(-18 494 808)"/>
      <ellipse cx="494" cy="808" rx="96" ry="50" stroke="#ffd166" stroke-width="2" stroke-dasharray="5 7" opacity="0.7" transform="rotate(14 494 808)"/>
      <circle cx="494" cy="808" r="13" fill="#FFFDF5"/>
      <circle cx="456" cy="821" r="7" fill="#FFE4A1"/>
      <circle cx="535" cy="792" r="7" fill="#FFE4A1"/>
    </g>
    <g>
      <line x1="612" y1="798" x2="612" y2="648" stroke="#ff6ec7" stroke-width="5"/>
      <ellipse cx="612" cy="648" rx="58" ry="34" stroke="#ff6ec7" stroke-width="3" transform="rotate(12 612 648)"/>
      <ellipse cx="612" cy="648" rx="84" ry="46" stroke="#ff6ec7" stroke-width="2" stroke-dasharray="5 7" opacity="0.7" transform="rotate(-14 612 648)"/>
      <circle cx="612" cy="648" r="13" fill="#FFF8FC"/>
      <circle cx="578" cy="661" r="7" fill="#FFC0E6"/>
      <circle cx="649" cy="633" r="7" fill="#FFC0E6"/>
    </g>
    <g>
      <line x1="748" y1="928" x2="748" y2="780" stroke="#55e6ff" stroke-width="5"/>
      <ellipse cx="748" cy="780" rx="62" ry="36" stroke="#55e6ff" stroke-width="3" transform="rotate(-12 748 780)"/>
      <ellipse cx="748" cy="780" rx="90" ry="48" stroke="#55e6ff" stroke-width="2" stroke-dasharray="5 7" opacity="0.7" transform="rotate(18 748 780)"/>
      <circle cx="748" cy="780" r="13" fill="#F8FDFF"/>
      <circle cx="712" cy="794" r="7" fill="#A8F6FF"/>
      <circle cx="784" cy="766" r="7" fill="#A8F6FF"/>
    </g>
    <g>
      <line x1="884" y1="866" x2="884" y2="708" stroke="#7cff8f" stroke-width="5"/>
      <ellipse cx="884" cy="708" rx="64" ry="36" stroke="#7cff8f" stroke-width="3" transform="rotate(14 884 708)"/>
      <ellipse cx="884" cy="708" rx="92" ry="50" stroke="#7cff8f" stroke-width="2" stroke-dasharray="5 7" opacity="0.7" transform="rotate(-10 884 708)"/>
      <circle cx="884" cy="708" r="13" fill="#FAFFF8"/>
      <circle cx="846" cy="723" r="7" fill="#C2FFCB"/>
      <circle cx="923" cy="692" r="7" fill="#C2FFCB"/>
    </g>
    <g>
      <line x1="1008" y1="938" x2="1008" y2="796" stroke="#55e6ff" stroke-width="5"/>
      <ellipse cx="1008" cy="796" rx="64" ry="36" stroke="#55e6ff" stroke-width="3" transform="rotate(-16 1008 796)"/>
      <ellipse cx="1008" cy="796" rx="92" ry="48" stroke="#55e6ff" stroke-width="2" stroke-dasharray="5 7" opacity="0.7" transform="rotate(13 1008 796)"/>
      <circle cx="1008" cy="796" r="13" fill="#F8FDFF"/>
      <circle cx="971" cy="810" r="7" fill="#A8F6FF"/>
      <circle cx="1048" cy="779" r="7" fill="#A8F6FF"/>
    </g>
    <g>
      <line x1="1094" y1="804" x2="1094" y2="658" stroke="#9d7bff" stroke-width="5"/>
      <ellipse cx="1094" cy="658" rx="56" ry="32" stroke="#9d7bff" stroke-width="3" transform="rotate(8 1094 658)"/>
      <ellipse cx="1094" cy="658" rx="82" ry="44" stroke="#9d7bff" stroke-width="2" stroke-dasharray="5 7" opacity="0.7" transform="rotate(-13 1094 658)"/>
      <circle cx="1094" cy="658" r="13" fill="#F8FDFF"/>
      <circle cx="1061" cy="671" r="7" fill="#CDBDFF"/>
      <circle cx="1130" cy="644" r="7" fill="#CDBDFF"/>
    </g>
  </g>

  <g font-family="Inter, Arial, sans-serif">
    <text x="84" y="1078" fill="#F2F8FF" font-size="30" font-weight="700">Live now:</text>
    <text x="236" y="1078" fill="#9CEBFF" font-size="30" font-weight="700">garytalbot.github.io/signal-garden</text>
    <text x="84" y="1122" fill="#9CB4CC" font-size="22">Tiny web-native ambient art for people who are tired of productivity software dressed like a hostage note.</text>
  </g>
</svg>
