<svg xmlns="http://www.w3.org/2000/svg" viewBox="0 0 64 64" fill="none">
  <defs>
    <linearGradient id="bg" x1="8" y1="6" x2="56" y2="58" gradientUnits="userSpaceOnUse">
      <stop offset="0" stop-color="#12233a"/>
      <stop offset="1" stop-color="#07111a"/>
    </linearGradient>
    <radialGradient id="violetGlow" cx="0" cy="0" r="1" gradientUnits="userSpaceOnUse" gradientTransform="translate(24 15) rotate(52) scale(28 24)">
      <stop offset="0" stop-color="#9d7bff" stop-opacity="0.92"/>
      <stop offset="1" stop-color="#9d7bff" stop-opacity="0"/>
    </radialGradient>
    <radialGradient id="cyanGlow" cx="0" cy="0" r="1" gradientUnits="userSpaceOnUse" gradientTransform="translate(45 44) rotate(90) scale(20 24)">
      <stop offset="0" stop-color="#55e6ff" stop-opacity="0.78"/>
      <stop offset="1" stop-color="#55e6ff" stop-opacity="0"/>
    </radialGradient>
    <filter id="softBloom" x="-50%" y="-50%" width="200%" height="200%">
      <feGaussianBlur stdDeviation="1.8"/>
    </filter>
  </defs>

  <rect width="64" height="64" rx="16" fill="url(#bg)"/>
  <rect x="1" y="1" width="62" height="62" rx="15" stroke="#28405f" stroke-opacity="0.72"/>
  <circle cx="13" cy="12" r="9" fill="#8f6cff" fill-opacity="0.16"/>
  <circle cx="54" cy="10" r="8" fill="#24d8ff" fill-opacity="0.12"/>
  <rect width="64" height="64" rx="16" fill="url(#violetGlow)"/>
  <rect width="64" height="64" rx="16" fill="url(#cyanGlow)"/>

  <g opacity="0.4">
    <circle cx="18" cy="11" r="0.9" fill="#fff"/>
    <circle cx="49.5" cy="16" r="0.85" fill="#fff"/>
    <circle cx="55" cy="23" r="0.8" fill="#fff"/>
  </g>

  <ellipse cx="32" cy="50" rx="17" ry="6" fill="#7cff8f" fill-opacity="0.16" filter="url(#softBloom)"/>
  <path d="M32 46.5V28" stroke="#7ee7ff" stroke-width="3" stroke-linecap="round"/>

  <g filter="url(#softBloom)">
    <ellipse cx="32" cy="25" rx="12.5" ry="7.4" stroke="#55e6ff" stroke-width="2.4" transform="rotate(-12 32 25)"/>
    <ellipse cx="32" cy="25" rx="18" ry="9.2" stroke="#9d7bff" stroke-width="2" stroke-dasharray="4 4" transform="rotate(17 32 25)" opacity="0.94"/>
  </g>

  <circle cx="32" cy="25" r="5.8" fill="#f8fdff"/>
  <circle cx="26.4" cy="27" r="2.3" fill="#ffc0e6"/>
  <circle cx="37.8" cy="22.2" r="2.3" fill="#a8f6ff"/>
</svg>
